<svg width="50.000000" height="50.000000" viewBox="0 0 50 50" fill="none" xmlns="http://www.w3.org/2000/svg" xmlns:xlink="http://www.w3.org/1999/xlink">
	<desc>
			Created with Pixso.
	</desc>
	<defs>
		<clipPath id="clip4_1080">
			<rect id="Frame" width="50.000000" height="50.000000" fill="white" fill-opacity="0"/>
		</clipPath>
	</defs>
	<rect id="Frame" width="50.000000" height="50.000000" fill="#FFFFFF" fill-opacity="0"/>
	<g clip-path="url(#clip4_1080)">
		<path id="Vector" d="M36.4583 9.375C32.3958 9.375 28.0208 10.2083 25 12.5C21.9791 10.2083 17.6041 9.375 13.5416 9.375C10.5208 9.375 7.31248 9.83325 4.62498 11.0208C3.10415 11.7083 2.08331 13.1875 2.08331 14.875L2.08331 38.375C2.08331 41.0833 4.62498 43.0834 7.24998 42.4166C9.29165 41.8958 11.4583 41.6667 13.5416 41.6667C16.7916 41.6667 20.25 42.2084 23.0416 43.5834C24.2916 44.2084 25.7083 44.2084 26.9375 43.5834C29.7291 42.1875 33.1875 41.6667 36.4375 41.6667C38.5208 41.6667 40.6875 41.8958 42.7291 42.4166C45.3541 43.1041 47.8958 41.1042 47.8958 38.375L47.8958 14.875C47.8958 13.1875 46.875 11.7083 45.3541 11.0208C42.6875 9.83325 39.4791 9.375 36.4583 9.375ZM43.75 35.8958C43.75 37.2083 42.5416 38.1667 41.25 37.9375C39.6875 37.6458 38.0625 37.5208 36.4583 37.5208C32.9166 37.5208 27.8125 38.875 25 40.6458L25 16.6667C27.8125 14.8958 32.9166 13.5417 36.4583 13.5417C38.375 13.5417 40.2708 13.7292 42.0833 14.125C43.0416 14.3333 43.75 15.1875 43.75 16.1667L43.75 35.8958Z" fill="#131314" fill-opacity="1.000000" fill-rule="nonzero"/>
		<path id="Vector" d="M29.125 22.9373C28.4583 22.9373 27.8542 22.5208 27.6458 21.854C27.375 21.0415 27.8333 20.1458 28.6458 19.8958C31.8542 18.854 36 18.5208 39.8125 18.9583C40.6667 19.0623 41.2917 19.8333 41.1875 20.6873C41.0834 21.5415 40.3125 22.1665 39.4584 22.0623C36.0834 21.6665 32.3958 21.979 29.6042 22.8748C29.4375 22.8958 29.2708 22.9373 29.125 22.9373ZM29.125 28.479C28.4583 28.479 27.8542 28.0623 27.6458 27.3958C27.375 26.5833 27.8333 25.6873 28.6458 25.4373C31.8333 24.3958 36 24.0623 39.8125 24.4998C40.6667 24.604 41.2917 25.3748 41.1875 26.229C41.0834 27.0833 40.3125 27.7083 39.4584 27.604C36.0834 27.2083 32.3958 27.5208 29.6042 28.4165C29.4375 28.4583 29.2708 28.479 29.125 28.479ZM29.125 34.0208C28.4583 34.0208 27.8542 33.604 27.6458 32.9373C27.375 32.1248 27.8333 31.229 28.6458 30.979C31.8333 29.9373 36 29.604 39.8125 30.0415C40.6667 30.1458 41.2917 30.9165 41.1875 31.7708C41.0834 32.6248 40.3125 33.229 39.4584 33.1458C36.0834 32.7498 32.3958 33.0623 29.6042 33.9583C29.4375 33.9998 29.2708 34.0208 29.125 34.0208Z" fill="#131314" fill-opacity="1.000000" fill-rule="nonzero"/>
	</g>
</svg>
